<?xml version="1.0" encoding="UTF-8" standalone="no"?>
<!-- Created with Inkscape (http://www.inkscape.org/) -->
<svg
   xmlns:dc="http://purl.org/dc/elements/1.1/"
   xmlns:cc="http://web.resource.org/cc/"
   xmlns:rdf="http://www.w3.org/1999/02/22-rdf-syntax-ns#"
   xmlns:svg="http://www.w3.org/2000/svg"
   xmlns="http://www.w3.org/2000/svg"
   xmlns:sodipodi="http://sodipodi.sourceforge.net/DTD/sodipodi-0.dtd"
   xmlns:inkscape="http://www.inkscape.org/namespaces/inkscape"
   width="544.79187"
   height="243"
   id="svg2284"
   sodipodi:version="0.32"
   inkscape:version="0.45.1"
   version="1.0"
   sodipodi:docbase="D:\Documents and Settings\Andrew\My Documents\My Pictures"
   sodipodi:docname="Square Wave Offset.svg"
   inkscape:output_extension="org.inkscape.output.svg.inkscape">
  <defs
     id="defs2286" />
  <sodipodi:namedview
     id="base"
     pagecolor="#ffffff"
     bordercolor="#666666"
     borderopacity="1.0"
     gridtolerance="10000"
     guidetolerance="10"
     objecttolerance="10"
     inkscape:pageopacity="0.0"
     inkscape:pageshadow="2"
     inkscape:zoom="0.35"
     inkscape:cx="375"
     inkscape:cy="-51.428571"
     inkscape:document-units="px"
     inkscape:current-layer="layer1"
     inkscape:window-width="748"
     inkscape:window-height="579"
     inkscape:window-x="88"
     inkscape:window-y="88" />
  <metadata
     id="metadata2289">
    <rdf:RDF>
      <cc:Work
         rdf:about="">
        <dc:format>image/svg+xml</dc:format>
        <dc:type
           rdf:resource="http://purl.org/dc/dcmitype/StillImage" />
      </cc:Work>
    </rdf:RDF>
  </metadata>
  <g
     inkscape:label="Layer 1"
     inkscape:groupmode="layer"
     id="layer1"
     transform="translate(115.25306,-290.86218)">
    <path
       style="font-size:12px;font-style:normal;font-weight:normal;fill:#000000;fill-opacity:1;stroke:none;stroke-width:1px;stroke-linecap:butt;stroke-linejoin:miter;stroke-opacity:1;font-family:Bitstream Vera Sans"
       d="M -106.13587,352.11609 L -114.88392,355.45593 L -114.88392,354.2196 L -107.51869,351.44812 L -114.88392,348.67078 L -114.88392,347.44031 L -106.13587,350.77429 L -106.13587,352.11609 z M -111.94251,343.67273 C -111.94251,344.25086 -111.71692,344.70789 -111.26576,345.04382 C -110.81458,345.37976 -110.19642,345.54773 -109.41126,345.54773 C -108.62611,345.54773 -108.00794,345.38074 -107.55677,345.04675 C -107.1056,344.71277 -106.88001,344.25476 -106.88001,343.67273 C -106.88001,343.09851 -107.10658,342.64344 -107.5597,342.3075 C -108.01282,341.97156 -108.63001,341.80359 -109.41126,341.80359 C -110.1886,341.80359 -110.80481,341.97156 -111.2599,342.3075 C -111.71497,342.64344 -111.94251,343.09851 -111.94251,343.67273 L -111.94251,343.67273 z M -112.85658,343.67273 C -112.85657,342.73523 -112.55188,341.99891 -111.94251,341.46375 C -111.33313,340.9286 -110.48939,340.66102 -109.41126,340.66101 C -108.33704,340.66102 -107.49427,340.9286 -106.88294,341.46375 C -106.27162,341.99891 -105.96595,342.73523 -105.96595,343.67273 C -105.96595,344.61414 -106.27162,345.35144 -106.88294,345.88464 C -107.49427,346.41785 -108.33704,346.68445 -109.41126,346.68445 C -110.48939,346.68445 -111.33313,346.41785 -111.94251,345.88464 C -112.55188,345.35144 -112.85657,344.61414 -112.85658,343.67273 L -112.85658,343.67273 z M -115.25306,338.87976 L -115.25306,337.80164 L -106.13587,337.80164 L -106.13587,338.87976 L -115.25306,338.87976 z M -114.56165,334.48523 L -112.69837,334.48523 L -112.69837,332.26453 L -111.86048,332.26453 L -111.86048,334.48523 L -108.29798,334.48523 C -107.76283,334.48523 -107.41908,334.41199 -107.26673,334.2655 C -107.11439,334.11902 -107.03822,333.82117 -107.03822,333.37195 L -107.03822,332.26453 L -106.13587,332.26453 L -106.13587,333.37195 C -106.13587,334.20398 -106.29115,334.7782 -106.60169,335.0946 C -106.91224,335.41101 -107.47767,335.56921 -108.29798,335.56921 L -111.86048,335.56921 L -111.86048,336.36023 L -112.69837,336.36023 L -112.69837,335.56921 L -114.56165,335.56921 L -114.56165,334.48523 z M -109.4347,327.85828 C -109.4347,328.72937 -109.33509,329.33289 -109.13587,329.66882 C -108.93665,330.00476 -108.59681,330.17273 -108.11634,330.17273 C -107.73353,330.17273 -107.42982,330.04675 -107.20521,329.7948 C -106.9806,329.54285 -106.86829,329.20008 -106.8683,328.76648 C -106.86829,328.16883 -107.08021,327.68934 -107.50404,327.328 C -107.92786,326.96668 -108.49134,326.78602 -109.19447,326.78601 L -109.4347,326.78601 L -109.4347,327.85828 z M -109.88001,325.70789 L -106.13587,325.70789 L -106.13587,326.78601 L -107.13197,326.78601 C -106.73353,327.03211 -106.43958,327.33875 -106.25013,327.70593 C -106.06068,328.07312 -105.96595,328.52234 -105.96595,329.05359 C -105.96595,329.72547 -106.15443,330.25965 -106.53138,330.65613 C -106.90833,331.05261 -107.41322,331.25086 -108.04603,331.25085 C -108.78431,331.25086 -109.34095,331.00379 -109.71595,330.50964 C -110.09095,330.0155 -110.27845,329.2782 -110.27845,328.29773 L -110.27845,326.78601 L -110.38392,326.78601 C -110.88001,326.78602 -111.2638,326.9491 -111.53529,327.27527 C -111.80677,327.60144 -111.94251,328.05945 -111.94251,328.64929 C -111.94251,329.02429 -111.89759,329.38953 -111.80775,329.745 C -111.7179,330.10047 -111.58313,330.44226 -111.40345,330.77039 L -112.39955,330.77039 C -112.55188,330.37586 -112.66614,329.99304 -112.74232,329.62195 C -112.81848,329.25086 -112.85657,328.88953 -112.85658,328.53796 C -112.85657,327.58875 -112.61048,326.87977 -112.1183,326.41101 C -111.6261,325.94227 -110.88001,325.70789 -109.88001,325.70789 L -109.88001,325.70789 z M -109.4933,319.16296 C -110.27454,319.16297 -110.88001,319.3241 -111.3097,319.64636 C -111.73938,319.96863 -111.95423,320.42078 -111.95423,321.00281 C -111.95423,321.58094 -111.73938,322.03113 -111.3097,322.35339 C -110.88001,322.67566 -110.27454,322.83679 -109.4933,322.83679 C -108.71595,322.83679 -108.11243,322.67566 -107.68275,322.35339 C -107.25306,322.03113 -107.03822,321.58094 -107.03822,321.00281 C -107.03822,320.42078 -107.25306,319.96863 -107.68275,319.64636 C -108.11243,319.3241 -108.71595,319.16297 -109.4933,319.16296 L -109.4933,319.16296 z M -106.95033,318.08484 C -105.83314,318.08485 -105.00209,318.33289 -104.45716,318.82898 C -103.91224,319.32508 -103.63978,320.08484 -103.63978,321.10828 C -103.63978,321.48719 -103.6681,321.84461 -103.72474,322.18054 C -103.78138,322.51648 -103.8683,322.84265 -103.98548,323.15906 L -105.03431,323.15906 C -104.86244,322.84265 -104.73548,322.53015 -104.65345,322.22156 C -104.57142,321.91297 -104.53041,321.59851 -104.5304,321.2782 C -104.53041,320.57117 -104.71498,320.04187 -105.08412,319.69031 C -105.45326,319.33875 -106.01087,319.16297 -106.75697,319.16296 L -107.29017,319.16296 C -106.90345,319.38563 -106.61439,319.67078 -106.42298,320.01843 C -106.23158,320.36609 -106.13587,320.78211 -106.13587,321.26648 C -106.13587,322.07117 -106.44251,322.71961 -107.0558,323.21179 C -107.66908,323.70398 -108.48157,323.95007 -109.4933,323.95007 C -110.50892,323.95007 -111.32337,323.70398 -111.93665,323.21179 C -112.54993,322.71961 -112.85657,322.07117 -112.85658,321.26648 C -112.85657,320.78211 -112.76087,320.36609 -112.56947,320.01843 C -112.37806,319.67078 -112.08899,319.38563 -111.70228,319.16296 L -112.69837,319.16296 L -112.69837,318.08484 L -106.95033,318.08484 z M -109.68665,310.25085 L -109.15931,310.25085 L -109.15931,315.20789 C -108.41712,315.16101 -107.85169,314.93738 -107.46302,314.53699 C -107.07435,314.1366 -106.88001,313.57898 -106.88001,312.86414 C -106.88001,312.45008 -106.93079,312.04871 -107.03236,311.66003 C -107.13392,311.27137 -107.28626,310.88563 -107.48939,310.50281 L -106.46986,310.50281 C -106.3058,310.88953 -106.1808,311.28602 -106.09486,311.69226 C -106.00892,312.09852 -105.96595,312.51062 -105.96595,312.92859 C -105.96595,313.97547 -106.27064,314.80457 -106.88001,315.41589 C -107.48939,316.02722 -108.31361,316.33289 -109.35267,316.33289 C -110.42689,316.33289 -111.27942,316.04285 -111.91029,315.46277 C -112.54114,314.88269 -112.85657,314.10047 -112.85658,313.11609 C -112.85657,312.23328 -112.57239,311.53504 -112.00404,311.02136 C -111.43567,310.5077 -110.66321,310.25086 -109.68665,310.25085 L -109.68665,310.25085 z M -110.00306,311.32898 C -110.5929,311.3368 -111.0636,311.50184 -111.41517,311.8241 C -111.76673,312.14637 -111.94251,312.57312 -111.94251,313.10437 C -111.94251,313.70594 -111.77259,314.18738 -111.43275,314.54871 C -111.0929,314.91004 -110.61438,315.11804 -109.9972,315.17273 L -110.00306,311.32898 z M -107.62415,308.20593 L -107.62415,306.9696 L -106.61634,306.9696 L -104.74134,307.93054 L -104.74134,308.6864 L -106.61634,308.20593 L -107.62415,308.20593 z M -106.13587,298.53796 L -114.88392,301.87781 L -114.88392,300.64148 L -107.51869,297.87 L -114.88392,295.09265 L -114.88392,293.86218 L -106.13587,297.19617 L -106.13587,298.53796 z "
       id="path2263" />
    <path
       style="font-size:12px;font-style:normal;font-weight:normal;fill:#000000;fill-opacity:1;stroke:none;stroke-width:1px;stroke-linecap:butt;stroke-linejoin:miter;stroke-opacity:1;font-family:Bitstream Vera Sans"
       inkscape:transform-center-x="20.917969"
       d="M 361.02428,397.2196 L 368.42467,397.2196 L 368.42467,398.2157 L 365.3192,398.2157 L 365.3192,405.96765 L 364.12975,405.96765 L 364.12975,398.2157 L 361.02428,398.2157 L 361.02428,397.2196 z M 369.52624,399.40515 L 370.60436,399.40515 L 370.60436,405.96765 L 369.52624,405.96765 L 369.52624,399.40515 z M 369.52624,396.85046 L 370.60436,396.85046 L 370.60436,398.2157 L 369.52624,398.2157 L 369.52624,396.85046 z M 377.96374,400.66492 C 378.23326,400.18055 378.55553,399.82313 378.93053,399.59265 C 379.30552,399.36219 379.74693,399.24695 380.25475,399.24695 C 380.93834,399.24695 381.46568,399.48621 381.83678,399.96472 C 382.20787,400.44324 382.39341,401.1239 382.39342,402.00671 L 382.39342,405.96765 L 381.30944,405.96765 L 381.30944,402.04187 C 381.30943,401.41297 381.1981,400.94617 380.97545,400.64148 C 380.75279,400.3368 380.41295,400.18445 379.95592,400.18445 C 379.39732,400.18445 378.95592,400.37 378.6317,400.74109 C 378.30748,401.11219 378.14537,401.61805 378.14538,402.25867 L 378.14538,405.96765 L 377.06139,405.96765 L 377.06139,402.04187 C 377.06139,401.40906 376.95006,400.94129 376.72741,400.63855 C 376.50475,400.33582 376.161,400.18445 375.69616,400.18445 C 375.14537,400.18445 374.70787,400.37098 374.38366,400.74402 C 374.05944,401.11707 373.89733,401.62195 373.89733,402.25867 L 373.89733,405.96765 L 372.81335,405.96765 L 372.81335,399.40515 L 373.89733,399.40515 L 373.89733,400.42468 C 374.14342,400.02234 374.43834,399.72547 374.7821,399.53406 C 375.12584,399.34266 375.53404,399.24695 376.0067,399.24695 C 376.48326,399.24695 376.88854,399.36805 377.22252,399.61023 C 377.5565,399.85242 377.80357,400.20398 377.96374,400.66492 L 377.96374,400.66492 z M 390.16295,402.41687 L 390.16295,402.94421 L 385.20592,402.94421 C 385.2528,403.6864 385.47643,404.25183 385.87682,404.6405 C 386.27721,405.02917 386.83483,405.22351 387.54967,405.22351 C 387.96373,405.22351 388.3651,405.17273 388.75377,405.07117 C 389.14244,404.9696 389.52818,404.81726 389.911,404.61413 L 389.911,405.63367 C 389.52428,405.79773 389.12779,405.92273 388.72155,406.00867 C 388.31529,406.0946 387.90318,406.13757 387.48522,406.13757 C 386.43834,406.13757 385.60924,405.83288 384.99792,405.22351 C 384.38659,404.61414 384.08092,403.78992 384.08092,402.75085 C 384.08092,401.67664 384.37096,400.8241 384.95104,400.19324 C 385.53112,399.56238 386.31334,399.24695 387.29772,399.24695 C 388.18053,399.24695 388.87877,399.53113 389.39245,400.09949 C 389.90611,400.66785 390.16295,401.44031 390.16295,402.41687 L 390.16295,402.41687 z M 389.08483,402.10046 C 389.07701,401.51062 388.91197,401.03992 388.58971,400.68835 C 388.26744,400.3368 387.84068,400.16102 387.30944,400.16101 C 386.70787,400.16102 386.22643,400.33094 385.8651,400.67078 C 385.50377,401.01062 385.29576,401.48914 385.24108,402.10632 L 389.08483,402.10046 z M 392.20788,404.47937 L 393.4442,404.47937 L 393.4442,405.48718 L 392.48327,407.36218 L 391.72741,407.36218 L 392.20788,405.48718 L 392.20788,404.47937 z M 400.63952,397.54187 L 400.63952,399.40515 L 402.86022,399.40515 L 402.86022,400.24304 L 400.63952,400.24304 L 400.63952,403.80554 C 400.63951,404.3407 400.71276,404.68445 400.85924,404.83679 C 401.00573,404.98914 401.30358,405.06531 401.7528,405.06531 L 402.86022,405.06531 L 402.86022,405.96765 L 401.7528,405.96765 C 400.92076,405.96765 400.34655,405.81238 400.03014,405.50183 C 399.71373,405.19128 399.55553,404.62585 399.55553,403.80554 L 399.55553,400.24304 L 398.76452,400.24304 L 398.76452,399.40515 L 399.55553,399.40515 L 399.55553,397.54187 L 400.63952,397.54187 z "
       id="path2265" />
    <path
       style="font-size:12px;font-style:normal;font-weight:normal;fill:#000000;fill-opacity:1;stroke:none;stroke-width:1px;stroke-linecap:butt;stroke-linejoin:miter;stroke-opacity:1;font-family:Bitstream Vera Sans"
       d="M -1.5401729,399.61413 L 5.8602171,399.61413 L 5.8602171,400.61023 L 2.7547471,400.61023 L 2.7547471,408.36218 L 1.5652971,408.36218 L 1.5652971,400.61023 L -1.5401729,400.61023 L -1.5401729,399.61413 z "
       id="path2267" />
    <path
       style="font-size:12px;font-style:normal;font-weight:normal;fill:#000000;fill-opacity:1;stroke:none;stroke-width:1px;stroke-linecap:butt;stroke-linejoin:miter;stroke-opacity:1;font-family:Bitstream Vera Sans"
       d="M 93.284047,407.36609 L 97.414897,407.36609 L 97.414897,408.36218 L 91.860217,408.36218 L 91.860217,407.36609 C 92.309427,406.90125 92.921737,406.27722 93.697127,405.49402 C 94.472517,404.71082 94.959817,404.20594 95.159047,403.97937 C 95.537947,403.55359 95.802587,403.19324 95.952987,402.89832 C 96.103377,402.6034 96.178567,402.31336 96.178577,402.0282 C 96.178567,401.56336 96.015487,401.18446 95.689317,400.89148 C 95.363137,400.59852 94.938337,400.45203 94.414897,400.45203 C 94.043807,400.45203 93.652207,400.51649 93.240097,400.64539 C 92.827987,400.7743 92.387557,400.96961 91.918807,401.23132 L 91.918807,400.03601 C 92.395367,399.84461 92.840677,399.70008 93.254747,399.60242 C 93.668807,399.50477 94.047707,399.45594 94.391467,399.45593 C 95.297707,399.45594 96.020367,399.6825 96.559437,400.13562 C 97.098487,400.58875 97.368017,401.19422 97.368027,401.95203 C 97.368017,402.31141 97.300637,402.65223 97.165877,402.97449 C 97.031107,403.29676 96.785987,403.67664 96.430527,404.11414 C 96.332867,404.22742 96.022317,404.55457 95.498887,405.09558 C 94.975447,405.6366 94.237167,406.39343 93.284047,407.36609 L 93.284047,407.36609 z M 98.586777,399.61414 L 105.98717,399.61414 L 105.98717,400.61023 L 102.8817,400.61023 L 102.8817,408.36218 L 101.69225,408.36218 L 101.69225,400.61023 L 98.586777,400.61023 L 98.586777,399.61414 z "
       id="path2269" />
    <path
       style="font-size:12px;font-style:normal;font-weight:normal;fill:#000000;fill-opacity:1;stroke:none;stroke-width:1px;stroke-linecap:butt;stroke-linejoin:miter;stroke-opacity:1;font-family:Bitstream Vera Sans"
       d="M 195.8153,404.55164 C 196.3817,404.67273 196.82408,404.92469 197.14245,405.3075 C 197.4608,405.69031 197.61998,406.16297 197.61999,406.72546 C 197.61998,407.58875 197.32311,408.25671 196.72936,408.72937 C 196.13561,409.20203 195.29186,409.43835 194.19811,409.43835 C 193.83092,409.43835 193.45299,409.40222 193.06432,409.32996 C 192.67565,409.25769 192.27428,409.14929 191.86022,409.00476 L 191.86022,407.86218 C 192.18835,408.05359 192.54772,408.19812 192.93835,408.29578 C 193.32897,408.39343 193.73717,408.44226 194.16296,408.44226 C 194.90514,408.44226 195.47057,408.29578 195.85925,408.00281 C 196.24791,407.70984 196.44225,407.28406 196.44225,406.72546 C 196.44225,406.20984 196.26158,405.80652 195.90026,405.5155 C 195.53893,405.22449 195.036,405.07898 194.39147,405.07898 L 193.37194,405.07898 L 193.37194,404.10632 L 194.43835,404.10632 C 195.02038,404.10633 195.46569,403.99012 195.77429,403.75769 C 196.08287,403.52527 196.23717,403.19031 196.23718,402.75281 C 196.23717,402.3036 196.07799,401.95887 195.75964,401.71863 C 195.44127,401.4784 194.98522,401.35828 194.39147,401.35828 C 194.06725,401.35828 193.7196,401.39344 193.3485,401.46375 C 192.97741,401.53407 192.56921,401.64344 192.1239,401.79187 L 192.1239,400.73718 C 192.57311,400.61219 192.99401,400.51844 193.38659,400.45593 C 193.77917,400.39344 194.14928,400.36219 194.49694,400.36218 C 195.39537,400.36219 196.10631,400.56629 196.62975,400.97449 C 197.15319,401.3827 197.4149,401.93446 197.41491,402.62976 C 197.4149,403.11414 197.27623,403.52332 196.9989,403.8573 C 196.72155,404.19129 196.32701,404.42273 195.8153,404.55164 L 195.8153,404.55164 z M 198.55163,400.52039 L 205.95202,400.52039 L 205.95202,401.51648 L 202.84655,401.51648 L 202.84655,409.26843 L 201.6571,409.26843 L 201.6571,401.51648 L 198.55163,401.51648 L 198.55163,400.52039 z "
       id="path2271" />
    <path
       style="font-size:12px;font-style:normal;font-weight:normal;fill:#000000;fill-opacity:1;stroke:none;stroke-width:1px;stroke-linecap:butt;stroke-linejoin:miter;stroke-opacity:1;font-family:Bitstream Vera Sans"
       d="M 295.38952,401.39343 L 292.40124,406.06335 L 295.38952,406.06335 L 295.38952,401.39343 z M 295.07897,400.36218 L 296.56725,400.36218 L 296.56725,406.06335 L 297.8153,406.06335 L 297.8153,407.04773 L 296.56725,407.04773 L 296.56725,409.11023 L 295.38952,409.11023 L 295.38952,407.04773 L 291.4403,407.04773 L 291.4403,405.90515 L 295.07897,400.36218 z M 298.45983,400.36218 L 305.86022,400.36218 L 305.86022,401.35828 L 302.75475,401.35828 L 302.75475,409.11023 L 301.5653,409.11023 L 301.5653,401.35828 L 298.45983,401.35828 L 298.45983,400.36218 z "
       id="path2273" />
    <path
       style="font-size:12px;font-style:normal;font-weight:normal;fill:#000000;fill-opacity:1;stroke:none;stroke-width:1px;stroke-linecap:butt;stroke-linejoin:miter;stroke-opacity:1;font-family:Bitstream Vera Sans"
       d="M -104.11635,409.22351 C -104.72573,409.22352 -105.18373,409.52332 -105.49037,410.12293 C -105.79701,410.72254 -105.95033,411.62391 -105.95033,412.82703 C -105.95033,414.02625 -105.79701,414.92566 -105.49037,415.52527 C -105.18373,416.12488 -104.72573,416.42469 -104.11635,416.42468 C -103.50307,416.42469 -103.04311,416.12488 -102.73646,415.52527 C -102.42983,414.92566 -102.27651,414.02625 -102.2765,412.82703 C -102.27651,411.62391 -102.42983,410.72254 -102.73646,410.12293 C -103.04311,409.52332 -103.50307,409.22352 -104.11635,409.22351 L -104.11635,409.22351 z M -104.11635,408.28601 C -103.13588,408.28602 -102.38686,408.67372 -101.86928,409.4491 C -101.35171,410.2245 -101.09292,411.35047 -101.09291,412.82703 C -101.09292,414.29969 -101.35171,415.42371 -101.86928,416.1991 C -102.38686,416.97449 -103.13588,417.36218 -104.11635,417.36218 C -105.09682,417.36218 -105.84584,416.97449 -106.36342,416.1991 C -106.881,415.42371 -107.13979,414.29969 -107.13978,412.82703 C -107.13979,411.35047 -106.881,410.2245 -106.36342,409.4491 C -105.84584,408.67372 -105.09682,408.28602 -104.11635,408.28601 L -104.11635,408.28601 z "
       id="path2275" />
    <path
       style="fill:none;fill-rule:evenodd;stroke:#000000;stroke-width:3;stroke-linecap:butt;stroke-linejoin:miter;stroke-opacity:1"
       d="M -92.139783,292.36218 L -92.139783,532.36218"
       id="path2277" />
    <path
       style="fill:none;fill-rule:evenodd;stroke:#000000;stroke-width:3;stroke-linecap:butt;stroke-linejoin:miter;stroke-opacity:1"
       d="M -92.139783,410.93361 L 428.03878,410.96651 L 427.98534,410.9665 L 426.81728,410.96643"
       id="path2279"
       sodipodi:nodetypes="cccc" />
    <path
       style="fill:none;fill-rule:evenodd;stroke:#000000;stroke-width:1px;stroke-linecap:butt;stroke-linejoin:miter;stroke-opacity:1"
       d="M -92.139783,362.40551 L -42.139783,362.36218 L -42.139783,462.36218 L 7.8602171,462.36218 L 7.8602171,362.36218 L 57.860217,362.36218 L 57.860217,462.36218 L 107.86022,462.36218 L 107.86022,362.36218 L 157.86022,362.36218 L 157.86022,462.36218 L 207.86022,462.36218 L 207.86022,362.36218 L 257.86022,362.36218 L 257.86022,462.36218 L 307.86022,462.36218 L 307.86022,362.36218 L 357.86022,362.36218 L 357.86022,462.36218 L 357.86022,462.36218 L 407.86022,462.36218 L 407.86022,362.36218 L 427.86022,362.36218"
       id="path2281"
       sodipodi:nodetypes="ccccccccccccccccccccccc" />
  </g>
</svg>
